<svg xmlns="http://www.w3.org/2000/svg" width="500" height="500" viewBox="0 0 500 500"><g transform="translate(199.7860913705574,207.45247522842695)translate(49.99360406091347,47.49392385786774)rotate(0)translate(-49.99360406091347,-47.49392385786774) scale(0.9998720812182694,0.9998720812182694)" opacity="1"><defs class="defs"/><path fill="#C7C7C7" d="M100,36.325l-34.548-5.021L50,0L34.549,31.305L0,36.325l25,24.368l-5.901,34.408L50,78.858l30.9,16.244&#10;&#9;L75,60.694L100,36.325z M50,73.209L25.74,85.962l4.633-27.015L10.745,39.817l27.124-3.942L50,11.297l12.132,24.578l27.123,3.942&#10;&#9;L69.628,58.948l4.632,27.015L50,73.209z" class="color c1"/></g><g transform="translate(300.02558375634544,207.2788508629446)translate(49.99360406091347,47.49392385786774)rotate(0)translate(-49.99360406091347,-47.49392385786774) scale(0.9998720812182694,0.9998720812182694)" opacity="1"><defs class="defs"/><path fill="#C7C7C7" d="M100,36.325l-34.548-5.021L50,0L34.549,31.305L0,36.325l25,24.368l-5.901,34.408L50,78.858l30.9,16.244&#10;&#9;L75,60.694L100,36.325z M50,73.209L25.74,85.962l4.633-27.015L10.745,39.817l27.124-3.942L50,11.297l12.132,24.578l27.123,3.942&#10;&#9;L69.628,58.948l4.632,27.015L50,73.209z" class="color c1"/></g><g transform="translate(99.98720812182697,207.452475228427)translate(49.99360406091347,47.49392385786774)rotate(0)translate(-49.99360406091347,-47.49392385786774) scale(0.9998720812182694,0.9998720812182694)" opacity="1"><defs class="defs"/><path fill="#C7C7C7" d="M100,36.325l-34.548-5.021L50,0L34.549,31.305L0,36.325l25,24.368l-5.901,34.408L50,78.858l30.9,16.244&#10;&#9;L75,60.694L100,36.325z M50,73.209L25.74,85.962l4.633-27.015L10.745,39.817l27.124-3.942L50,11.297l12.132,24.578l27.123,3.942&#10;&#9;L69.628,58.948l4.632,27.015L50,73.209z" class="color c1"/></g><g transform="translate(2.842170943040401e-14,207.452475228427)translate(49.99360406091347,47.49392385786774)rotate(0)translate(-49.99360406091347,-47.49392385786774) scale(0.9998720812182694,0.9998720812182694)" opacity="1"><defs class="defs"/><path fill="#C7C7C7" d="M100,36.325l-34.548-5.021L50,0L34.549,31.305L0,36.325l25,24.368l-5.901,34.408L50,78.858l30.9,16.244&#10;&#9;L75,60.694L100,36.325z M50,73.209L25.74,85.962l4.633-27.015L10.745,39.817l27.124-3.942L50,11.297l12.132,24.578l27.123,3.942&#10;&#9;L69.628,58.948l4.632,27.015L50,73.209z" class="color c1"/></g><g transform="translate(400.01279187817374,207.27885086294458)translate(49.99360406091347,47.49392385786774)rotate(0)translate(-49.99360406091347,-47.49392385786774) scale(0.9998720812182694,0.9998720812182694)" opacity="1"><defs class="defs"/><path fill="#C7C7C7" d="M100,36.325l-34.548-5.021L50,0L34.549,31.305L0,36.325l25,24.368l-5.901,34.408L50,78.858l30.9,16.244&#10;&#9;L75,60.694L100,36.325z M50,73.209L25.74,85.962l4.633-27.015L10.745,39.817l27.124-3.942L50,11.297l12.132,24.578l27.123,3.942&#10;&#9;L69.628,58.948l4.632,27.015L50,73.209z" class="color c1"/></g></svg>