<svg xmlns="http://www.w3.org/2000/svg" xmlns:xlink="http://www.w3.org/1999/xlink" width="512" zoomAndPan="magnify" viewBox="0 0 384 383.999986" height="512" preserveAspectRatio="xMidYMid meet" version="1.0"><defs><g/><clipPath id="8f5220b48b"><path d="M 113 41 L 271 41 L 271 200 L 113 200 Z M 113 41 " clip-rule="nonzero"/></clipPath><clipPath id="b448d5d99b"><path d="M 86.066406 86.394531 L 226.324219 14.746094 L 297.972656 155.007812 L 157.710938 226.652344 Z M 86.066406 86.394531 " clip-rule="nonzero"/></clipPath><clipPath id="3d6f0b5d45"><path d="M 86.066406 86.394531 L 226.324219 14.746094 L 297.972656 155.007812 L 157.710938 226.652344 Z M 86.066406 86.394531 " clip-rule="nonzero"/></clipPath><clipPath id="b1ec0bfd4d"><path d="M 227.808594 190.808594 C 189.175781 210.542969 141.613281 195.140625 121.878906 156.507812 C 102.144531 117.875 117.546875 70.3125 156.179688 50.578125 C 194.8125 30.84375 242.375 46.246094 262.109375 84.878906 C 271.683594 103.617188 273.433594 124.902344 266.960938 144.898438 C 260.40625 164.933594 246.550781 181.234375 227.808594 190.808594 Z M 220.671875 176.832031 C 218.289062 178.050781 215.308594 177.085938 214.089844 174.703125 C 212.871094 172.320312 213.839844 169.339844 216.222656 168.121094 C 242.359375 154.769531 252.773438 122.605469 239.421875 96.464844 C 233.628906 85.121094 223.933594 76.289062 212.253906 71.476562 C 209.683594 70.507812 208.503906 67.589844 209.515625 65.101562 C 210.566406 62.492188 213.402344 61.355469 215.972656 62.324219 C 229.847656 67.984375 241.332031 78.492188 248.21875 91.972656 C 255.902344 107.015625 257.246094 124.050781 252.058594 140.074219 C 246.789062 156.132812 235.714844 169.148438 220.671875 176.832031 Z M 206.390625 181.953125 C 206.0625 182.121094 205.652344 182.328125 205.15625 182.375 C 198.152344 183.878906 191.136719 184.148438 184.359375 183.257812 C 181.589844 182.90625 179.710938 180.449219 180.101562 177.761719 C 180.410156 175.117188 182.828125 173.15625 185.597656 173.503906 C 191.339844 174.195312 197.242188 173.980469 203.175781 172.816406 C 205.773438 172.214844 208.429688 173.96875 208.945312 176.605469 C 209.460938 178.828125 208.363281 180.945312 206.390625 181.953125 Z M 173.015625 179.101562 C 171.78125 179.730469 170.296875 179.867188 168.96875 179.300781 C 154.722656 173.726562 142.949219 163.054688 135.9375 149.328125 C 128.292969 134.367188 126.910156 117.25 132.136719 101.3125 C 137.242188 85.332031 148.398438 72.277344 163.359375 64.632812 C 169.03125 61.738281 175.039062 59.703125 181.179688 58.535156 C 183.859375 58.101562 186.4375 59.894531 186.871094 62.574219 C 187.390625 65.210938 185.59375 67.785156 182.917969 68.222656 C 177.722656 69.214844 172.703125 70.953125 167.851562 73.429688 C 141.796875 86.738281 131.421875 118.777344 144.730469 144.835938 C 150.695312 156.507812 160.554688 165.460938 172.523438 170.230469 C 175.09375 171.199219 176.355469 174.078125 175.34375 176.5625 C 174.902344 177.722656 174 178.597656 173.015625 179.101562 Z M 184.589844 147.792969 C 183.523438 148.339844 182.164062 148.515625 180.921875 148.117188 L 159.5625 141.199219 L 159.4375 141.160156 L 159.3125 141.117188 L 159.0625 141.039062 L 158.941406 140.996094 L 158.691406 140.917969 L 158.648438 140.835938 L 158.484375 140.714844 L 158.359375 140.671875 L 158.316406 140.589844 L 158.191406 140.550781 L 158.070312 140.511719 L 158.027344 140.429688 L 157.859375 140.304688 L 157.820312 140.222656 L 157.695312 140.183594 L 157.609375 140.019531 L 157.445312 139.894531 L 157.359375 139.730469 L 157.234375 139.691406 L 157.152344 139.527344 L 157.066406 139.363281 L 156.945312 139.324219 L 156.859375 139.160156 L 156.816406 139.074219 L 156.777344 138.992188 L 156.648438 138.746094 L 156.609375 138.664062 L 156.480469 138.417969 L 156.441406 138.335938 L 156.398438 138.253906 L 156.4375 138.128906 L 156.355469 137.964844 L 156.269531 137.800781 L 156.269531 137.59375 L 156.183594 137.429688 L 156.226562 137.304688 L 156.097656 137.058594 L 156.140625 136.933594 L 156.097656 136.851562 L 156.136719 136.730469 L 156.09375 136.648438 L 156.09375 136.441406 L 156.132812 136.316406 L 156.09375 136.234375 L 156.171875 135.984375 L 156.128906 135.902344 L 156.171875 135.777344 L 156.210938 135.65625 L 156.25 135.53125 L 156.25 135.324219 L 156.328125 135.074219 L 156.410156 135.035156 L 156.371094 134.953125 L 163.328125 113.675781 C 164.089844 111.109375 166.886719 109.679688 169.492188 110.523438 C 172.058594 111.289062 173.484375 114.082031 172.640625 116.691406 L 167.253906 133.332031 L 183.894531 138.71875 C 186.503906 139.5625 187.929688 142.359375 187.085938 144.964844 C 186.683594 146.207031 185.742188 147.207031 184.589844 147.792969 Z M 201.574219 159.125 C 201.242188 159.292969 200.832031 159.503906 200.460938 159.585938 C 197.742188 160.148438 195.128906 158.476562 194.566406 155.757812 L 179.988281 87.648438 C 179.386719 85.054688 181.058594 82.4375 183.734375 81.796875 C 186.453125 81.234375 189.070312 82.90625 189.628906 85.625 L 204.210938 153.734375 C 204.722656 155.960938 203.546875 158.117188 201.574219 159.125 Z M 218.375 130.539062 C 217.222656 131.125 215.945312 131.261719 214.621094 130.902344 C 212.097656 130.015625 210.667969 127.21875 211.429688 124.652344 L 216.902344 107.96875 L 200.179688 102.625 C 197.652344 101.738281 196.226562 98.941406 197.027344 96.460938 C 197.875 93.851562 200.667969 92.425781 203.277344 93.269531 L 224.636719 100.183594 C 227.121094 100.988281 228.546875 103.785156 227.785156 106.351562 L 227.746094 106.472656 L 220.867188 127.710938 C 220.382812 128.992188 219.527344 129.949219 218.375 130.539062 Z M 218.375 130.539062 " clip-rule="evenodd"/></clipPath><linearGradient x1="-597.379331" gradientTransform="matrix(0.0821978, -0.0419872, 0.0419872, 0.0821978, 86.06535, 86.393157)" y1="1932.067886" x2="2271.529044" gradientUnits="userSpaceOnUse" y2="-201.234848" id="4554e56142"><stop stop-opacity="1" stop-color="rgb(95.698547%, 95.698547%, 95.698547%)" offset="0"/><stop stop-opacity="1" stop-color="rgb(95.698547%, 95.698547%, 95.698547%)" offset="0.25"/><stop stop-opacity="1" stop-color="rgb(95.643616%, 95.680237%, 95.701599%)" offset="0.265625"/><stop stop-opacity="1" stop-color="rgb(94.415283%, 95.275879%, 95.773315%)" offset="0.269531"/><stop stop-opacity="1" stop-color="rgb(93.241882%, 94.889832%, 95.84198%)" offset="0.273438"/><stop stop-opacity="1" stop-color="rgb(92.068481%, 94.502258%, 95.910645%)" offset="0.277344"/><stop stop-opacity="1" stop-color="rgb(90.895081%, 94.114685%, 95.979309%)" offset="0.28125"/><stop stop-opacity="1" stop-color="rgb(89.720154%, 93.727112%, 96.047974%)" offset="0.285156"/><stop stop-opacity="1" stop-color="rgb(88.546753%, 93.341064%, 96.116638%)" offset="0.289062"/><stop stop-opacity="1" stop-color="rgb(87.371826%, 92.953491%, 96.185303%)" offset="0.292969"/><stop stop-opacity="1" stop-color="rgb(86.198425%, 92.565918%, 96.253967%)" offset="0.296875"/><stop stop-opacity="1" stop-color="rgb(85.023499%, 92.178345%, 96.322632%)" offset="0.300781"/><stop stop-opacity="1" stop-color="rgb(83.850098%, 91.792297%, 96.391296%)" offset="0.304688"/><stop stop-opacity="1" stop-color="rgb(82.675171%, 91.404724%, 96.458435%)" offset="0.308594"/><stop stop-opacity="1" stop-color="rgb(81.50177%, 91.018677%, 96.5271%)" offset="0.3125"/><stop stop-opacity="1" stop-color="rgb(80.326843%, 90.631104%, 96.595764%)" offset="0.316406"/><stop stop-opacity="1" stop-color="rgb(79.153442%, 90.24353%, 96.664429%)" offset="0.320312"/><stop stop-opacity="1" stop-color="rgb(77.978516%, 89.855957%, 96.733093%)" offset="0.324219"/><stop stop-opacity="1" stop-color="rgb(76.805115%, 89.46991%, 96.801758%)" offset="0.328125"/><stop stop-opacity="1" stop-color="rgb(75.631714%, 89.082336%, 96.870422%)" offset="0.332031"/><stop stop-opacity="1" stop-color="rgb(74.458313%, 88.696289%, 96.939087%)" offset="0.335938"/><stop stop-opacity="1" stop-color="rgb(73.283386%, 88.308716%, 97.006226%)" offset="0.339844"/><stop stop-opacity="1" stop-color="rgb(72.109985%, 87.921143%, 97.07489%)" offset="0.34375"/><stop stop-opacity="1" stop-color="rgb(70.935059%, 87.533569%, 97.143555%)" offset="0.347656"/><stop stop-opacity="1" stop-color="rgb(69.761658%, 87.147522%, 97.212219%)" offset="0.351562"/><stop stop-opacity="1" stop-color="rgb(68.586731%, 86.759949%, 97.280884%)" offset="0.355469"/><stop stop-opacity="1" stop-color="rgb(67.41333%, 86.372375%, 97.349548%)" offset="0.359375"/><stop stop-opacity="1" stop-color="rgb(66.238403%, 85.984802%, 97.418213%)" offset="0.363281"/><stop stop-opacity="1" stop-color="rgb(65.065002%, 85.598755%, 97.486877%)" offset="0.367187"/><stop stop-opacity="1" stop-color="rgb(63.890076%, 85.211182%, 97.555542%)" offset="0.371094"/><stop stop-opacity="1" stop-color="rgb(62.716675%, 84.825134%, 97.624207%)" offset="0.375"/><stop stop-opacity="1" stop-color="rgb(61.541748%, 84.437561%, 97.691345%)" offset="0.378906"/><stop stop-opacity="1" stop-color="rgb(60.368347%, 84.049988%, 97.76001%)" offset="0.382813"/><stop stop-opacity="1" stop-color="rgb(59.194946%, 83.662415%, 97.828674%)" offset="0.386719"/><stop stop-opacity="1" stop-color="rgb(58.021545%, 83.276367%, 97.897339%)" offset="0.390625"/><stop stop-opacity="1" stop-color="rgb(56.846619%, 82.888794%, 97.966003%)" offset="0.394531"/><stop stop-opacity="1" stop-color="rgb(55.673218%, 82.501221%, 98.034668%)" offset="0.398438"/><stop stop-opacity="1" stop-color="rgb(54.498291%, 82.113647%, 98.103333%)" offset="0.402344"/><stop stop-opacity="1" stop-color="rgb(53.32489%, 81.7276%, 98.171997%)" offset="0.40625"/><stop stop-opacity="1" stop-color="rgb(52.149963%, 81.340027%, 98.240662%)" offset="0.410156"/><stop stop-opacity="1" stop-color="rgb(50.976562%, 80.953979%, 98.309326%)" offset="0.414063"/><stop stop-opacity="1" stop-color="rgb(49.801636%, 80.566406%, 98.376465%)" offset="0.417969"/><stop stop-opacity="1" stop-color="rgb(48.628235%, 80.178833%, 98.445129%)" offset="0.421875"/><stop stop-opacity="1" stop-color="rgb(47.453308%, 79.79126%, 98.513794%)" offset="0.425781"/><stop stop-opacity="1" stop-color="rgb(46.279907%, 79.405212%, 98.582458%)" offset="0.429688"/><stop stop-opacity="1" stop-color="rgb(45.10498%, 79.017639%, 98.651123%)" offset="0.433594"/><stop stop-opacity="1" stop-color="rgb(43.93158%, 78.631592%, 98.719788%)" offset="0.4375"/><stop stop-opacity="1" stop-color="rgb(42.756653%, 78.244019%, 98.788452%)" offset="0.441406"/><stop stop-opacity="1" stop-color="rgb(41.583252%, 77.856445%, 98.857117%)" offset="0.445312"/><stop stop-opacity="1" stop-color="rgb(40.409851%, 77.468872%, 98.924255%)" offset="0.449219"/><stop stop-opacity="1" stop-color="rgb(39.23645%, 77.082825%, 98.99292%)" offset="0.453125"/><stop stop-opacity="1" stop-color="rgb(38.061523%, 76.695251%, 99.061584%)" offset="0.457031"/><stop stop-opacity="1" stop-color="rgb(36.888123%, 76.307678%, 99.130249%)" offset="0.460938"/><stop stop-opacity="1" stop-color="rgb(35.713196%, 75.920105%, 99.198914%)" offset="0.464844"/><stop stop-opacity="1" stop-color="rgb(34.539795%, 75.534058%, 99.267578%)" offset="0.46875"/><stop stop-opacity="1" stop-color="rgb(33.364868%, 75.146484%, 99.336243%)" offset="0.472656"/><stop stop-opacity="1" stop-color="rgb(32.191467%, 74.760437%, 99.404907%)" offset="0.476562"/><stop stop-opacity="1" stop-color="rgb(31.016541%, 74.372864%, 99.473572%)" offset="0.480469"/><stop stop-opacity="1" stop-color="rgb(29.84314%, 73.985291%, 99.542236%)" offset="0.484375"/><stop stop-opacity="1" stop-color="rgb(28.668213%, 73.597717%, 99.609375%)" offset="0.488281"/><stop stop-opacity="1" stop-color="rgb(27.494812%, 73.21167%, 99.67804%)" offset="0.492188"/><stop stop-opacity="1" stop-color="rgb(26.319885%, 72.824097%, 99.746704%)" offset="0.496094"/><stop stop-opacity="1" stop-color="rgb(25.146484%, 72.436523%, 99.815369%)" offset="0.5"/><stop stop-opacity="1" stop-color="rgb(23.973083%, 72.04895%, 99.884033%)" offset="0.503906"/><stop stop-opacity="1" stop-color="rgb(22.799683%, 71.662903%, 99.952698%)" offset="0.507812"/><stop stop-opacity="1" stop-color="rgb(23.205566%, 71.795654%, 99.928284%)" offset="0.511719"/><stop stop-opacity="1" stop-color="rgb(23.61145%, 71.929932%, 99.905396%)" offset="0.515625"/><stop stop-opacity="1" stop-color="rgb(24.832153%, 72.332764%, 99.833679%)" offset="0.519531"/><stop stop-opacity="1" stop-color="rgb(26.054382%, 72.737122%, 99.761963%)" offset="0.523438"/><stop stop-opacity="1" stop-color="rgb(27.276611%, 73.139954%, 99.690247%)" offset="0.527344"/><stop stop-opacity="1" stop-color="rgb(28.49884%, 73.542786%, 99.620056%)" offset="0.53125"/><stop stop-opacity="1" stop-color="rgb(29.721069%, 73.945618%, 99.54834%)" offset="0.535156"/><stop stop-opacity="1" stop-color="rgb(30.943298%, 74.34845%, 99.478149%)" offset="0.539062"/><stop stop-opacity="1" stop-color="rgb(32.164001%, 74.751282%, 99.406433%)" offset="0.542969"/><stop stop-opacity="1" stop-color="rgb(33.38623%, 75.154114%, 99.334717%)" offset="0.546875"/><stop stop-opacity="1" stop-color="rgb(34.608459%, 75.556946%, 99.263%)" offset="0.550781"/><stop stop-opacity="1" stop-color="rgb(35.830688%, 75.959778%, 99.19281%)" offset="0.554688"/><stop stop-opacity="1" stop-color="rgb(37.052917%, 76.36261%, 99.121094%)" offset="0.558594"/><stop stop-opacity="1" stop-color="rgb(38.275146%, 76.765442%, 99.049377%)" offset="0.5625"/><stop stop-opacity="1" stop-color="rgb(39.49585%, 77.168274%, 98.977661%)" offset="0.566406"/><stop stop-opacity="1" stop-color="rgb(40.718079%, 77.571106%, 98.907471%)" offset="0.570312"/><stop stop-opacity="1" stop-color="rgb(41.940308%, 77.973938%, 98.835754%)" offset="0.574219"/><stop stop-opacity="1" stop-color="rgb(43.162537%, 78.37677%, 98.764038%)" offset="0.578125"/><stop stop-opacity="1" stop-color="rgb(44.384766%, 78.779602%, 98.692322%)" offset="0.582031"/><stop stop-opacity="1" stop-color="rgb(45.606995%, 79.182434%, 98.622131%)" offset="0.585938"/><stop stop-opacity="1" stop-color="rgb(46.827698%, 79.585266%, 98.550415%)" offset="0.589844"/><stop stop-opacity="1" stop-color="rgb(48.049927%, 79.988098%, 98.478699%)" offset="0.59375"/><stop stop-opacity="1" stop-color="rgb(49.272156%, 80.39093%, 98.406982%)" offset="0.597656"/><stop stop-opacity="1" stop-color="rgb(50.494385%, 80.793762%, 98.336792%)" offset="0.601562"/><stop stop-opacity="1" stop-color="rgb(51.716614%, 81.196594%, 98.265076%)" offset="0.605469"/><stop stop-opacity="1" stop-color="rgb(52.938843%, 81.600952%, 98.193359%)" offset="0.609375"/><stop stop-opacity="1" stop-color="rgb(54.159546%, 82.003784%, 98.121643%)" offset="0.613281"/><stop stop-opacity="1" stop-color="rgb(55.381775%, 82.406616%, 98.051453%)" offset="0.617188"/><stop stop-opacity="1" stop-color="rgb(56.604004%, 82.809448%, 97.979736%)" offset="0.621094"/><stop stop-opacity="1" stop-color="rgb(57.826233%, 83.21228%, 97.909546%)" offset="0.625"/><stop stop-opacity="1" stop-color="rgb(59.048462%, 83.615112%, 97.83783%)" offset="0.628906"/><stop stop-opacity="1" stop-color="rgb(60.270691%, 84.017944%, 97.766113%)" offset="0.632812"/><stop stop-opacity="1" stop-color="rgb(61.491394%, 84.420776%, 97.694397%)" offset="0.636719"/><stop stop-opacity="1" stop-color="rgb(62.713623%, 84.823608%, 97.624207%)" offset="0.640625"/><stop stop-opacity="1" stop-color="rgb(63.935852%, 85.22644%, 97.55249%)" offset="0.644531"/><stop stop-opacity="1" stop-color="rgb(65.158081%, 85.629272%, 97.480774%)" offset="0.648438"/><stop stop-opacity="1" stop-color="rgb(66.38031%, 86.032104%, 97.409058%)" offset="0.652344"/><stop stop-opacity="1" stop-color="rgb(67.602539%, 86.434937%, 97.338867%)" offset="0.65625"/><stop stop-opacity="1" stop-color="rgb(68.823242%, 86.837769%, 97.267151%)" offset="0.660156"/><stop stop-opacity="1" stop-color="rgb(70.045471%, 87.240601%, 97.195435%)" offset="0.664062"/><stop stop-opacity="1" stop-color="rgb(71.2677%, 87.643433%, 97.123718%)" offset="0.667969"/><stop stop-opacity="1" stop-color="rgb(72.489929%, 88.046265%, 97.053528%)" offset="0.671875"/><stop stop-opacity="1" stop-color="rgb(73.712158%, 88.449097%, 96.981812%)" offset="0.675781"/><stop stop-opacity="1" stop-color="rgb(74.934387%, 88.851929%, 96.910095%)" offset="0.679688"/><stop stop-opacity="1" stop-color="rgb(76.15509%, 89.254761%, 96.838379%)" offset="0.683594"/><stop stop-opacity="1" stop-color="rgb(77.377319%, 89.659119%, 96.768188%)" offset="0.6875"/><stop stop-opacity="1" stop-color="rgb(78.599548%, 90.061951%, 96.696472%)" offset="0.691406"/><stop stop-opacity="1" stop-color="rgb(79.821777%, 90.464783%, 96.626282%)" offset="0.695312"/><stop stop-opacity="1" stop-color="rgb(81.044006%, 90.867615%, 96.554565%)" offset="0.699219"/><stop stop-opacity="1" stop-color="rgb(82.266235%, 91.270447%, 96.482849%)" offset="0.703125"/><stop stop-opacity="1" stop-color="rgb(83.486938%, 91.673279%, 96.411133%)" offset="0.707031"/><stop stop-opacity="1" stop-color="rgb(84.709167%, 92.076111%, 96.340942%)" offset="0.710938"/><stop stop-opacity="1" stop-color="rgb(85.931396%, 92.478943%, 96.269226%)" offset="0.714844"/><stop stop-opacity="1" stop-color="rgb(87.153625%, 92.881775%, 96.19751%)" offset="0.71875"/><stop stop-opacity="1" stop-color="rgb(88.375854%, 93.284607%, 96.125793%)" offset="0.722656"/><stop stop-opacity="1" stop-color="rgb(89.598083%, 93.687439%, 96.055603%)" offset="0.726562"/><stop stop-opacity="1" stop-color="rgb(90.818787%, 94.090271%, 95.983887%)" offset="0.730469"/><stop stop-opacity="1" stop-color="rgb(92.041016%, 94.493103%, 95.91217%)" offset="0.734375"/><stop stop-opacity="1" stop-color="rgb(93.263245%, 94.895935%, 95.840454%)" offset="0.738281"/><stop stop-opacity="1" stop-color="rgb(94.485474%, 95.298767%, 95.770264%)" offset="0.742188"/><stop stop-opacity="1" stop-color="rgb(95.091248%, 95.498657%, 95.733643%)" offset="0.746094"/><stop stop-opacity="1" stop-color="rgb(95.698547%, 95.698547%, 95.698547%)" offset="0.75"/><stop stop-opacity="1" stop-color="rgb(95.698547%, 95.698547%, 95.698547%)" offset="1"/></linearGradient><clipPath id="6f7dccc773"><path d="M 149.382812 126 L 271 126 L 271 199.683594 L 149.382812 199.683594 Z M 149.382812 126 " clip-rule="nonzero"/></clipPath><clipPath id="e148a018bf"><path d="M 58.832031 51 L 325.082031 51 L 325.082031 198 L 58.832031 198 Z M 58.832031 51 " clip-rule="nonzero"/></clipPath></defs><rect x="-38.4" width="460.8" fill="#ffffff" y="-38.399999" height="460.799983" fill-opacity="1"/><rect x="-38.4" width="460.8" fill="#000000" y="-38.399999" height="460.799983" fill-opacity="1"/><g clip-path="url(#8f5220b48b)"><g clip-path="url(#b448d5d99b)"><g clip-path="url(#3d6f0b5d45)"><g clip-path="url(#b1ec0bfd4d)"><path fill="url(#4554e56142)" d="M 29.351562 68.027344 L 137.589844 279.929688 L 346.230469 173.355469 L 237.988281 -38.546875 Z M 29.351562 68.027344 " fill-rule="nonzero"/></g></g></g></g><path fill="#38b6ff" d="M 135.195312 169.136719 C 124.082031 156.09375 117.320312 139.21875 117.320312 120.761719 C 117.320312 79.585938 150.820312 46.085938 191.996094 46.085938 C 227.371094 46.085938 257.019531 70.84375 264.675781 103.929688 C 265.945312 103.074219 267.195312 102.242188 268.402344 101.410156 C 259.746094 67.246094 228.804688 41.839844 191.996094 41.839844 C 148.46875 41.839844 113.074219 77.253906 113.074219 120.761719 C 113.074219 139.675781 119.777344 157.050781 130.90625 170.65625 C 132.324219 170.179688 133.757812 169.660156 135.195312 169.136719 " fill-opacity="1" fill-rule="nonzero"/><g clip-path="url(#6f7dccc773)"><path fill="#38b6ff" d="M 191.996094 195.4375 C 178.472656 195.4375 165.820312 191.777344 154.855469 185.472656 C 153.171875 186.136719 151.527344 186.761719 149.863281 187.386719 C 162.054688 195.125 176.496094 199.683594 191.996094 199.683594 C 233.550781 199.683594 267.632812 167.371094 270.628906 126.566406 C 269.128906 127.523438 267.652344 128.480469 266.113281 129.4375 C 261.804688 166.539062 230.21875 195.4375 191.996094 195.4375 " fill-opacity="1" fill-rule="nonzero"/></g><g clip-path="url(#e148a018bf)"><path fill="#38b6ff" d="M 324.183594 57.984375 C 318.359375 46.292969 289.125 52.140625 265.65625 59.089844 C 264.261719 59.503906 263.46875 60.960938 263.886719 62.335938 C 264.300781 63.730469 265.738281 64.519531 267.132812 64.105469 C 302.027344 53.742188 317.152344 55.59375 319.523438 60.335938 C 321.980469 65.207031 314.011719 78.8125 283.507812 101.140625 C 262.410156 116.640625 234.234375 133.433594 204.191406 148.457031 C 175.164062 162.980469 146.910156 174.714844 122.5 182.414062 C 83.738281 194.710938 67.03125 193.085938 64.46875 187.96875 C 61.972656 182.976562 70.296875 168.992188 102.046875 146.019531 C 103.214844 145.1875 103.484375 143.546875 102.628906 142.378906 C 101.777344 141.214844 100.15625 140.945312 98.988281 141.796875 C 77.722656 157.175781 53.671875 178.085938 59.808594 190.300781 C 62.222656 195.148438 68.570312 197.039062 76.953125 197.039062 C 90.105469 197.039062 108.269531 192.402344 124.082031 187.386719 C 148.738281 179.625 177.246094 167.765625 206.519531 153.136719 C 236.816406 137.988281 265.257812 121.011719 286.609375 105.363281 C 307.0625 90.382812 330.21875 69.992188 324.183594 57.984375 " fill-opacity="1" fill-rule="nonzero"/></g><g fill="#38b6ff" fill-opacity="1"><g transform="translate(23.496787, 275.82131)"><g><path d="M 2.984375 0 L 2.984375 -4.921875 L 22.578125 -32.421875 L 2.953125 -32.421875 L 2.953125 -39.265625 L 33.015625 -39.265625 L 33.015625 -34.328125 L 13.40625 -6.84375 L 33.046875 -6.84375 L 33.046875 0 Z M 2.984375 0 "/></g></g></g><g fill="#38b6ff" fill-opacity="1"><g transform="translate(59.497538, 275.82131)"><g><path d="M 3.40625 0 L 3.40625 -39.265625 L 29.875 -39.265625 L 29.875 -32.421875 L 11.71875 -32.421875 L 11.71875 -23.0625 L 28.5 -23.0625 L 28.5 -16.21875 L 11.71875 -16.21875 L 11.71875 -6.84375 L 29.9375 -6.84375 L 29.9375 0 Z M 3.40625 0 "/></g></g></g><g fill="#38b6ff" fill-opacity="1"><g transform="translate(92.565331, 275.82131)"><g><path d="M 3.40625 0 L 3.40625 -39.265625 L 18.90625 -39.265625 C 23.363281 -39.265625 26.820312 -38.097656 29.28125 -35.765625 C 31.738281 -33.441406 32.96875 -30.332031 32.96875 -26.4375 C 32.96875 -23.75 32.367188 -21.453125 31.171875 -19.546875 C 29.984375 -17.648438 28.269531 -16.222656 26.03125 -15.265625 L 34.375 0 L 25.203125 0 L 17.765625 -13.921875 L 11.71875 -13.921875 L 11.71875 0 Z M 11.71875 -20.59375 L 17.34375 -20.59375 C 22.0625 -20.59375 24.421875 -22.539062 24.421875 -26.4375 C 24.421875 -30.457031 22.050781 -32.46875 17.3125 -32.46875 L 11.71875 -32.46875 Z M 11.71875 -20.59375 "/></g></g></g><g fill="#38b6ff" fill-opacity="1"><g transform="translate(127.990979, 275.82131)"><g><path d="M 39.484375 -19.625 C 39.484375 -15.34375 38.675781 -11.703125 37.0625 -8.703125 C 35.445312 -5.703125 33.253906 -3.410156 30.484375 -1.828125 C 27.710938 -0.253906 24.585938 0.53125 21.109375 0.53125 C 17.617188 0.53125 14.484375 -0.257812 11.703125 -1.84375 C 8.929688 -3.425781 6.738281 -5.722656 5.125 -8.734375 C 3.519531 -11.742188 2.71875 -15.375 2.71875 -19.625 C 2.71875 -23.90625 3.519531 -27.546875 5.125 -30.546875 C 6.738281 -33.554688 8.929688 -35.847656 11.703125 -37.421875 C 14.484375 -39.003906 17.617188 -39.796875 21.109375 -39.796875 C 24.585938 -39.796875 27.710938 -39.003906 30.484375 -37.421875 C 33.253906 -35.847656 35.445312 -33.554688 37.0625 -30.546875 C 38.675781 -27.546875 39.484375 -23.90625 39.484375 -19.625 Z M 31.078125 -19.625 C 31.078125 -23.789062 30.164062 -26.96875 28.34375 -29.15625 C 26.53125 -31.351562 24.117188 -32.453125 21.109375 -32.453125 C 18.085938 -32.453125 15.671875 -31.351562 13.859375 -29.15625 C 12.046875 -26.96875 11.140625 -23.789062 11.140625 -19.625 C 11.140625 -15.476562 12.046875 -12.304688 13.859375 -10.109375 C 15.671875 -7.910156 18.085938 -6.8125 21.109375 -6.8125 C 24.117188 -6.8125 26.53125 -7.910156 28.34375 -10.109375 C 30.164062 -12.304688 31.078125 -15.476562 31.078125 -19.625 Z M 31.078125 -19.625 "/></g></g></g><g fill="#38b6ff" fill-opacity="1"><g transform="translate(170.202728, 275.82131)"><g/></g></g><g fill="#38b6ff" fill-opacity="1"><g transform="translate(182.720564, 275.82131)"><g><path d="M 3.40625 -39.265625 L 13.65625 -39.265625 L 24.46875 -12.875 L 24.921875 -12.875 L 35.734375 -39.265625 L 45.96875 -39.265625 L 45.96875 0 L 37.921875 0 L 37.921875 -25.546875 L 37.59375 -25.546875 L 27.4375 -0.1875 L 21.953125 -0.1875 L 11.796875 -25.65625 L 11.46875 -25.65625 L 11.46875 0 L 3.40625 0 Z M 3.40625 -39.265625 "/></g></g></g><g fill="#38b6ff" fill-opacity="1"><g transform="translate(232.600196, 275.82131)"><g><path d="M 3.40625 0 L 3.40625 -39.265625 L 29.875 -39.265625 L 29.875 -32.421875 L 11.71875 -32.421875 L 11.71875 -23.0625 L 28.5 -23.0625 L 28.5 -16.21875 L 11.71875 -16.21875 L 11.71875 -6.84375 L 29.9375 -6.84375 L 29.9375 0 Z M 3.40625 0 "/></g></g></g><g fill="#38b6ff" fill-opacity="1"><g transform="translate(265.667989, 275.82131)"><g><path d="M 17.328125 0 L 3.40625 0 L 3.40625 -39.265625 L 17.4375 -39.265625 C 21.394531 -39.265625 24.800781 -38.476562 27.65625 -36.90625 C 30.507812 -35.34375 32.703125 -33.097656 34.234375 -30.171875 C 35.765625 -27.242188 36.53125 -23.742188 36.53125 -19.671875 C 36.53125 -15.578125 35.757812 -12.0625 34.21875 -9.125 C 32.6875 -6.1875 30.484375 -3.929688 27.609375 -2.359375 C 24.742188 -0.785156 21.316406 0 17.328125 0 Z M 11.71875 -7.109375 L 16.984375 -7.109375 C 20.679688 -7.109375 23.484375 -8.101562 25.390625 -10.09375 C 27.296875 -12.09375 28.25 -15.285156 28.25 -19.671875 C 28.25 -24.023438 27.296875 -27.191406 25.390625 -29.171875 C 23.484375 -31.160156 20.6875 -32.15625 17 -32.15625 L 11.71875 -32.15625 Z M 11.71875 -7.109375 "/></g></g></g><g fill="#38b6ff" fill-opacity="1"><g transform="translate(304.927593, 275.82131)"><g><path d="M 11.71875 -39.265625 L 11.71875 0 L 3.40625 0 L 3.40625 -39.265625 Z M 11.71875 -39.265625 "/></g></g></g><g fill="#38b6ff" fill-opacity="1"><g transform="translate(320.07168, 275.82131)"><g><path d="M 10.171875 0 L 1.28125 0 L 14.84375 -39.265625 L 25.53125 -39.265625 L 39.0625 0 L 30.171875 0 L 27.265625 -8.953125 L 13.09375 -8.953125 Z M 15.203125 -15.4375 L 25.171875 -15.4375 L 20.34375 -30.296875 L 20.03125 -30.296875 Z M 15.203125 -15.4375 "/></g></g></g><g fill="#f4f4f4" fill-opacity="1"><g transform="translate(18.449181, 317.395141)"><g><path d="M 5.6875 0 L 0.546875 -18.765625 L 2.859375 -18.765625 L 6.78125 -3.484375 L 6.96875 -3.484375 L 10.96875 -18.765625 L 13.53125 -18.765625 L 17.53125 -3.484375 L 17.703125 -3.484375 L 21.640625 -18.765625 L 23.9375 -18.765625 L 18.8125 0 L 16.46875 0 L 12.3125 -14.953125 L 12.171875 -14.953125 L 8.03125 0 Z M 5.6875 0 "/></g></g></g><g fill="#f4f4f4" fill-opacity="1"><g transform="translate(42.934523, 317.395141)"><g><path d="M 18.109375 -9.390625 C 18.109375 -7.410156 17.75 -5.695312 17.03125 -4.25 C 16.320312 -2.8125 15.34375 -1.703125 14.09375 -0.921875 C 12.851562 -0.140625 11.429688 0.25 9.828125 0.25 C 8.222656 0.25 6.796875 -0.140625 5.546875 -0.921875 C 4.304688 -1.703125 3.328125 -2.8125 2.609375 -4.25 C 1.898438 -5.695312 1.546875 -7.410156 1.546875 -9.390625 C 1.546875 -11.367188 1.898438 -13.078125 2.609375 -14.515625 C 3.328125 -15.960938 4.304688 -17.078125 5.546875 -17.859375 C 6.796875 -18.640625 8.222656 -19.03125 9.828125 -19.03125 C 11.429688 -19.03125 12.851562 -18.640625 14.09375 -17.859375 C 15.34375 -17.078125 16.320312 -15.960938 17.03125 -14.515625 C 17.75 -13.078125 18.109375 -11.367188 18.109375 -9.390625 Z M 15.90625 -9.390625 C 15.90625 -11.015625 15.632812 -12.382812 15.09375 -13.5 C 14.5625 -14.625 13.832031 -15.472656 12.90625 -16.046875 C 11.988281 -16.617188 10.960938 -16.90625 9.828125 -16.90625 C 8.691406 -16.90625 7.660156 -16.617188 6.734375 -16.046875 C 5.816406 -15.472656 5.085938 -14.625 4.546875 -13.5 C 4.003906 -12.382812 3.734375 -11.015625 3.734375 -9.390625 C 3.734375 -7.765625 4.003906 -6.390625 4.546875 -5.265625 C 5.085938 -4.148438 5.816406 -3.304688 6.734375 -2.734375 C 7.660156 -2.160156 8.691406 -1.875 9.828125 -1.875 C 10.960938 -1.875 11.988281 -2.160156 12.90625 -2.734375 C 13.832031 -3.304688 14.5625 -4.148438 15.09375 -5.265625 C 15.632812 -6.390625 15.90625 -7.765625 15.90625 -9.390625 Z M 15.90625 -9.390625 "/></g></g></g><g fill="#f4f4f4" fill-opacity="1"><g transform="translate(62.581452, 317.395141)"><g><path d="M 2.265625 0 L 2.265625 -18.765625 L 8.609375 -18.765625 C 10.078125 -18.765625 11.28125 -18.515625 12.21875 -18.015625 C 13.164062 -17.523438 13.863281 -16.84375 14.3125 -15.96875 C 14.769531 -15.101562 15 -14.117188 15 -13.015625 C 15 -11.765625 14.710938 -10.675781 14.140625 -9.75 C 13.566406 -8.832031 12.679688 -8.164062 11.484375 -7.75 L 15.734375 0 L 13.09375 0 L 9.125 -7.34375 C 8.976562 -7.332031 8.820312 -7.328125 8.65625 -7.328125 L 4.546875 -7.328125 L 4.546875 0 Z M 4.546875 -9.390625 L 8.578125 -9.390625 C 10.078125 -9.390625 11.148438 -9.710938 11.796875 -10.359375 C 12.441406 -11.003906 12.765625 -11.890625 12.765625 -13.015625 C 12.765625 -14.148438 12.441406 -15.054688 11.796875 -15.734375 C 11.148438 -16.410156 10.066406 -16.75 8.546875 -16.75 L 4.546875 -16.75 Z M 4.546875 -9.390625 "/></g></g></g><g fill="#f4f4f4" fill-opacity="1"><g transform="translate(79.076072, 317.395141)"><g><path d="M 8.0625 0 L 2.265625 0 L 2.265625 -18.765625 L 8.328125 -18.765625 C 10.148438 -18.765625 11.707031 -18.390625 13 -17.640625 C 14.289062 -16.898438 15.28125 -15.832031 15.96875 -14.4375 C 16.664062 -13.039062 17.015625 -11.367188 17.015625 -9.421875 C 17.015625 -7.460938 16.664062 -5.78125 15.96875 -4.375 C 15.269531 -2.96875 14.253906 -1.882812 12.921875 -1.125 C 11.585938 -0.375 9.96875 0 8.0625 0 Z M 4.546875 -2.015625 L 7.921875 -2.015625 C 10.242188 -2.015625 11.972656 -2.675781 13.109375 -4 C 14.242188 -5.320312 14.8125 -7.128906 14.8125 -9.421875 C 14.8125 -11.691406 14.253906 -13.476562 13.140625 -14.78125 C 12.023438 -16.09375 10.367188 -16.75 8.171875 -16.75 L 4.546875 -16.75 Z M 4.546875 -2.015625 "/></g></g></g><g fill="#f4f4f4" fill-opacity="1"><g transform="translate(97.62335, 317.395141)"><g><path d="M 2.265625 0 L 2.265625 -18.765625 L 8.609375 -18.765625 C 10.085938 -18.765625 11.296875 -18.5 12.234375 -17.96875 C 13.171875 -17.445312 13.863281 -16.738281 14.3125 -15.84375 C 14.769531 -14.945312 15 -13.941406 15 -12.828125 C 15 -11.722656 14.773438 -10.71875 14.328125 -9.8125 C 13.878906 -8.90625 13.1875 -8.1875 12.25 -7.65625 C 11.3125 -7.125 10.113281 -6.859375 8.65625 -6.859375 L 4.546875 -6.859375 L 4.546875 0 Z M 4.546875 -8.875 L 8.578125 -8.875 C 10.085938 -8.875 11.160156 -9.25 11.796875 -10 C 12.441406 -10.757812 12.765625 -11.703125 12.765625 -12.828125 C 12.765625 -13.960938 12.441406 -14.898438 11.796875 -15.640625 C 11.148438 -16.378906 10.066406 -16.75 8.546875 -16.75 L 4.546875 -16.75 Z M 4.546875 -8.875 "/></g></g></g><g fill="#f4f4f4" fill-opacity="1"><g transform="translate(114.008004, 317.395141)"><g><path d="M 2.265625 0 L 2.265625 -18.765625 L 8.609375 -18.765625 C 10.078125 -18.765625 11.28125 -18.515625 12.21875 -18.015625 C 13.164062 -17.523438 13.863281 -16.84375 14.3125 -15.96875 C 14.769531 -15.101562 15 -14.117188 15 -13.015625 C 15 -11.765625 14.710938 -10.675781 14.140625 -9.75 C 13.566406 -8.832031 12.679688 -8.164062 11.484375 -7.75 L 15.734375 0 L 13.09375 0 L 9.125 -7.34375 C 8.976562 -7.332031 8.820312 -7.328125 8.65625 -7.328125 L 4.546875 -7.328125 L 4.546875 0 Z M 4.546875 -9.390625 L 8.578125 -9.390625 C 10.078125 -9.390625 11.148438 -9.710938 11.796875 -10.359375 C 12.441406 -11.003906 12.765625 -11.890625 12.765625 -13.015625 C 12.765625 -14.148438 12.441406 -15.054688 11.796875 -15.734375 C 11.148438 -16.410156 10.066406 -16.75 8.546875 -16.75 L 4.546875 -16.75 Z M 4.546875 -9.390625 "/></g></g></g><g fill="#f4f4f4" fill-opacity="1"><g transform="translate(130.502623, 317.395141)"><g><path d="M 2.265625 0 L 2.265625 -18.765625 L 13.609375 -18.765625 L 13.609375 -16.75 L 4.546875 -16.75 L 4.546875 -10.40625 L 13.015625 -10.40625 L 13.015625 -8.390625 L 4.546875 -8.390625 L 4.546875 -2.015625 L 13.75 -2.015625 L 13.75 0 Z M 2.265625 0 "/></g></g></g><g fill="#f4f4f4" fill-opacity="1"><g transform="translate(145.934259, 317.395141)"><g><path d="M 12.546875 -14.078125 C 12.429688 -15.003906 11.984375 -15.722656 11.203125 -16.234375 C 10.421875 -16.753906 9.460938 -17.015625 8.328125 -17.015625 C 7.078125 -17.015625 6.070312 -16.71875 5.3125 -16.125 C 4.5625 -15.539062 4.1875 -14.796875 4.1875 -13.890625 C 4.1875 -13.222656 4.390625 -12.679688 4.796875 -12.265625 C 5.210938 -11.859375 5.703125 -11.539062 6.265625 -11.3125 C 6.828125 -11.082031 7.34375 -10.90625 7.8125 -10.78125 L 9.71875 -10.265625 C 10.207031 -10.140625 10.75 -9.960938 11.34375 -9.734375 C 11.945312 -9.503906 12.523438 -9.195312 13.078125 -8.8125 C 13.640625 -8.425781 14.097656 -7.929688 14.453125 -7.328125 C 14.816406 -6.722656 15 -5.976562 15 -5.09375 C 15 -4.082031 14.734375 -3.164062 14.203125 -2.34375 C 13.671875 -1.53125 12.898438 -0.878906 11.890625 -0.390625 C 10.878906 0.0859375 9.65625 0.328125 8.21875 0.328125 C 6.195312 0.328125 4.59375 -0.144531 3.40625 -1.09375 C 2.21875 -2.050781 1.570312 -3.300781 1.46875 -4.84375 L 3.8125 -4.84375 C 3.875 -4.132812 4.113281 -3.546875 4.53125 -3.078125 C 4.945312 -2.617188 5.476562 -2.273438 6.125 -2.046875 C 6.769531 -1.828125 7.46875 -1.71875 8.21875 -1.71875 C 9.082031 -1.71875 9.859375 -1.859375 10.546875 -2.140625 C 11.242188 -2.429688 11.789062 -2.832031 12.1875 -3.34375 C 12.59375 -3.851562 12.796875 -4.453125 12.796875 -5.140625 C 12.796875 -5.753906 12.617188 -6.253906 12.265625 -6.640625 C 11.921875 -7.035156 11.460938 -7.351562 10.890625 -7.59375 C 10.328125 -7.84375 9.71875 -8.0625 9.0625 -8.25 L 6.75 -8.90625 C 5.28125 -9.332031 4.117188 -9.9375 3.265625 -10.71875 C 2.410156 -11.5 1.984375 -12.519531 1.984375 -13.78125 C 1.984375 -14.832031 2.265625 -15.75 2.828125 -16.53125 C 3.398438 -17.320312 4.171875 -17.9375 5.140625 -18.375 C 6.109375 -18.8125 7.191406 -19.03125 8.390625 -19.03125 C 9.609375 -19.03125 10.6875 -18.8125 11.625 -18.375 C 12.5625 -17.945312 13.304688 -17.359375 13.859375 -16.609375 C 14.410156 -15.867188 14.703125 -15.023438 14.734375 -14.078125 Z M 12.546875 -14.078125 "/></g></g></g><g fill="#f4f4f4" fill-opacity="1"><g transform="translate(162.392223, 317.395141)"><g><path d="M 12.546875 -14.078125 C 12.429688 -15.003906 11.984375 -15.722656 11.203125 -16.234375 C 10.421875 -16.753906 9.460938 -17.015625 8.328125 -17.015625 C 7.078125 -17.015625 6.070312 -16.71875 5.3125 -16.125 C 4.5625 -15.539062 4.1875 -14.796875 4.1875 -13.890625 C 4.1875 -13.222656 4.390625 -12.679688 4.796875 -12.265625 C 5.210938 -11.859375 5.703125 -11.539062 6.265625 -11.3125 C 6.828125 -11.082031 7.34375 -10.90625 7.8125 -10.78125 L 9.71875 -10.265625 C 10.207031 -10.140625 10.75 -9.960938 11.34375 -9.734375 C 11.945312 -9.503906 12.523438 -9.195312 13.078125 -8.8125 C 13.640625 -8.425781 14.097656 -7.929688 14.453125 -7.328125 C 14.816406 -6.722656 15 -5.976562 15 -5.09375 C 15 -4.082031 14.734375 -3.164062 14.203125 -2.34375 C 13.671875 -1.53125 12.898438 -0.878906 11.890625 -0.390625 C 10.878906 0.0859375 9.65625 0.328125 8.21875 0.328125 C 6.195312 0.328125 4.59375 -0.144531 3.40625 -1.09375 C 2.21875 -2.050781 1.570312 -3.300781 1.46875 -4.84375 L 3.8125 -4.84375 C 3.875 -4.132812 4.113281 -3.546875 4.53125 -3.078125 C 4.945312 -2.617188 5.476562 -2.273438 6.125 -2.046875 C 6.769531 -1.828125 7.46875 -1.71875 8.21875 -1.71875 C 9.082031 -1.71875 9.859375 -1.859375 10.546875 -2.140625 C 11.242188 -2.429688 11.789062 -2.832031 12.1875 -3.34375 C 12.59375 -3.851562 12.796875 -4.453125 12.796875 -5.140625 C 12.796875 -5.753906 12.617188 -6.253906 12.265625 -6.640625 C 11.921875 -7.035156 11.460938 -7.351562 10.890625 -7.59375 C 10.328125 -7.84375 9.71875 -8.0625 9.0625 -8.25 L 6.75 -8.90625 C 5.28125 -9.332031 4.117188 -9.9375 3.265625 -10.71875 C 2.410156 -11.5 1.984375 -12.519531 1.984375 -13.78125 C 1.984375 -14.832031 2.265625 -15.75 2.828125 -16.53125 C 3.398438 -17.320312 4.171875 -17.9375 5.140625 -18.375 C 6.109375 -18.8125 7.191406 -19.03125 8.390625 -19.03125 C 9.609375 -19.03125 10.6875 -18.8125 11.625 -18.375 C 12.5625 -17.945312 13.304688 -17.359375 13.859375 -16.609375 C 14.410156 -15.867188 14.703125 -15.023438 14.734375 -14.078125 Z M 12.546875 -14.078125 "/></g></g></g><g fill="#f4f4f4" fill-opacity="1"><g transform="translate(178.850188, 317.395141)"><g/></g></g><g fill="#38b6ff" fill-opacity="1"><g transform="translate(186.109327, 317.395141)"><g><path d="M 1.25 -16.75 L 1.25 -18.765625 L 15.328125 -18.765625 L 15.328125 -16.75 L 9.421875 -16.75 L 9.421875 0 L 7.15625 0 L 7.15625 -16.75 Z M 1.25 -16.75 "/></g></g></g><g fill="#38b6ff" fill-opacity="1"><g transform="translate(202.677258, 317.395141)"><g><path d="M 2.265625 0 L 2.265625 -18.765625 L 13.609375 -18.765625 L 13.609375 -16.75 L 4.546875 -16.75 L 4.546875 -10.40625 L 13.015625 -10.40625 L 13.015625 -8.390625 L 4.546875 -8.390625 L 4.546875 -2.015625 L 13.75 -2.015625 L 13.75 0 Z M 2.265625 0 "/></g></g></g><g fill="#38b6ff" fill-opacity="1"><g transform="translate(218.108894, 317.395141)"><g><path d="M 17.375 -12.90625 L 15.109375 -12.90625 C 14.921875 -13.769531 14.566406 -14.5 14.046875 -15.09375 C 13.523438 -15.6875 12.898438 -16.132812 12.171875 -16.4375 C 11.441406 -16.75 10.660156 -16.90625 9.828125 -16.90625 C 8.691406 -16.90625 7.660156 -16.617188 6.734375 -16.046875 C 5.816406 -15.472656 5.085938 -14.625 4.546875 -13.5 C 4.003906 -12.382812 3.734375 -11.015625 3.734375 -9.390625 C 3.734375 -7.765625 4.003906 -6.390625 4.546875 -5.265625 C 5.085938 -4.148438 5.816406 -3.304688 6.734375 -2.734375 C 7.660156 -2.160156 8.691406 -1.875 9.828125 -1.875 C 10.660156 -1.875 11.441406 -2.023438 12.171875 -2.328125 C 12.898438 -2.628906 13.523438 -3.078125 14.046875 -3.671875 C 14.566406 -4.265625 14.921875 -4.992188 15.109375 -5.859375 L 17.375 -5.859375 C 17.144531 -4.578125 16.671875 -3.476562 15.953125 -2.5625 C 15.242188 -1.65625 14.359375 -0.957031 13.296875 -0.46875 C 12.242188 0.0078125 11.085938 0.25 9.828125 0.25 C 8.222656 0.25 6.796875 -0.140625 5.546875 -0.921875 C 4.304688 -1.703125 3.328125 -2.8125 2.609375 -4.25 C 1.898438 -5.695312 1.546875 -7.410156 1.546875 -9.390625 C 1.546875 -11.367188 1.898438 -13.078125 2.609375 -14.515625 C 3.328125 -15.960938 4.304688 -17.078125 5.546875 -17.859375 C 6.796875 -18.640625 8.222656 -19.03125 9.828125 -19.03125 C 11.085938 -19.03125 12.242188 -18.785156 13.296875 -18.296875 C 14.359375 -17.816406 15.242188 -17.117188 15.953125 -16.203125 C 16.671875 -15.285156 17.144531 -14.1875 17.375 -12.90625 Z M 17.375 -12.90625 "/></g></g></g><g fill="#38b6ff" fill-opacity="1"><g transform="translate(236.876104, 317.395141)"><g><path d="M 2.265625 0 L 2.265625 -18.765625 L 4.546875 -18.765625 L 4.546875 -10.40625 L 14.5625 -10.40625 L 14.5625 -18.765625 L 16.828125 -18.765625 L 16.828125 0 L 14.5625 0 L 14.5625 -8.390625 L 4.546875 -8.390625 L 4.546875 0 Z M 2.265625 0 "/></g></g></g><g fill="#38b6ff" fill-opacity="1"><g transform="translate(255.973202, 317.395141)"><g><path d="M 17.15625 -18.765625 L 17.15625 0 L 14.953125 0 L 4.734375 -14.734375 L 4.546875 -14.734375 L 4.546875 0 L 2.265625 0 L 2.265625 -18.765625 L 4.46875 -18.765625 L 14.734375 -4 L 14.921875 -4 L 14.921875 -18.765625 Z M 17.15625 -18.765625 "/></g></g></g><g fill="#38b6ff" fill-opacity="1"><g transform="translate(275.400198, 317.395141)"><g><path d="M 18.109375 -9.390625 C 18.109375 -7.410156 17.75 -5.695312 17.03125 -4.25 C 16.320312 -2.8125 15.34375 -1.703125 14.09375 -0.921875 C 12.851562 -0.140625 11.429688 0.25 9.828125 0.25 C 8.222656 0.25 6.796875 -0.140625 5.546875 -0.921875 C 4.304688 -1.703125 3.328125 -2.8125 2.609375 -4.25 C 1.898438 -5.695312 1.546875 -7.410156 1.546875 -9.390625 C 1.546875 -11.367188 1.898438 -13.078125 2.609375 -14.515625 C 3.328125 -15.960938 4.304688 -17.078125 5.546875 -17.859375 C 6.796875 -18.640625 8.222656 -19.03125 9.828125 -19.03125 C 11.429688 -19.03125 12.851562 -18.640625 14.09375 -17.859375 C 15.34375 -17.078125 16.320312 -15.960938 17.03125 -14.515625 C 17.75 -13.078125 18.109375 -11.367188 18.109375 -9.390625 Z M 15.90625 -9.390625 C 15.90625 -11.015625 15.632812 -12.382812 15.09375 -13.5 C 14.5625 -14.625 13.832031 -15.472656 12.90625 -16.046875 C 11.988281 -16.617188 10.960938 -16.90625 9.828125 -16.90625 C 8.691406 -16.90625 7.660156 -16.617188 6.734375 -16.046875 C 5.816406 -15.472656 5.085938 -14.625 4.546875 -13.5 C 4.003906 -12.382812 3.734375 -11.015625 3.734375 -9.390625 C 3.734375 -7.765625 4.003906 -6.390625 4.546875 -5.265625 C 5.085938 -4.148438 5.816406 -3.304688 6.734375 -2.734375 C 7.660156 -2.160156 8.691406 -1.875 9.828125 -1.875 C 10.960938 -1.875 11.988281 -2.160156 12.90625 -2.734375 C 13.832031 -3.304688 14.5625 -4.148438 15.09375 -5.265625 C 15.632812 -6.390625 15.90625 -7.765625 15.90625 -9.390625 Z M 15.90625 -9.390625 "/></g></g></g><g fill="#38b6ff" fill-opacity="1"><g transform="translate(295.047128, 317.395141)"><g><path d="M 2.265625 0 L 2.265625 -18.765625 L 4.546875 -18.765625 L 4.546875 -2.015625 L 13.265625 -2.015625 L 13.265625 0 Z M 2.265625 0 "/></g></g></g><g fill="#38b6ff" fill-opacity="1"><g transform="translate(309.562389, 317.395141)"><g><path d="M 18.109375 -9.390625 C 18.109375 -7.410156 17.75 -5.695312 17.03125 -4.25 C 16.320312 -2.8125 15.34375 -1.703125 14.09375 -0.921875 C 12.851562 -0.140625 11.429688 0.25 9.828125 0.25 C 8.222656 0.25 6.796875 -0.140625 5.546875 -0.921875 C 4.304688 -1.703125 3.328125 -2.8125 2.609375 -4.25 C 1.898438 -5.695312 1.546875 -7.410156 1.546875 -9.390625 C 1.546875 -11.367188 1.898438 -13.078125 2.609375 -14.515625 C 3.328125 -15.960938 4.304688 -17.078125 5.546875 -17.859375 C 6.796875 -18.640625 8.222656 -19.03125 9.828125 -19.03125 C 11.429688 -19.03125 12.851562 -18.640625 14.09375 -17.859375 C 15.34375 -17.078125 16.320312 -15.960938 17.03125 -14.515625 C 17.75 -13.078125 18.109375 -11.367188 18.109375 -9.390625 Z M 15.90625 -9.390625 C 15.90625 -11.015625 15.632812 -12.382812 15.09375 -13.5 C 14.5625 -14.625 13.832031 -15.472656 12.90625 -16.046875 C 11.988281 -16.617188 10.960938 -16.90625 9.828125 -16.90625 C 8.691406 -16.90625 7.660156 -16.617188 6.734375 -16.046875 C 5.816406 -15.472656 5.085938 -14.625 4.546875 -13.5 C 4.003906 -12.382812 3.734375 -11.015625 3.734375 -9.390625 C 3.734375 -7.765625 4.003906 -6.390625 4.546875 -5.265625 C 5.085938 -4.148438 5.816406 -3.304688 6.734375 -2.734375 C 7.660156 -2.160156 8.691406 -1.875 9.828125 -1.875 C 10.960938 -1.875 11.988281 -2.160156 12.90625 -2.734375 C 13.832031 -3.304688 14.5625 -4.148438 15.09375 -5.265625 C 15.632812 -6.390625 15.90625 -7.765625 15.90625 -9.390625 Z M 15.90625 -9.390625 "/></g></g></g><g fill="#38b6ff" fill-opacity="1"><g transform="translate(329.209318, 317.395141)"><g><path d="M 15.109375 -12.90625 C 14.710938 -14.144531 14.054688 -15.117188 13.140625 -15.828125 C 12.234375 -16.546875 11.101562 -16.90625 9.75 -16.90625 C 8.632812 -16.90625 7.625 -16.617188 6.71875 -16.046875 C 5.8125 -15.472656 5.085938 -14.625 4.546875 -13.5 C 4.003906 -12.382812 3.734375 -11.015625 3.734375 -9.390625 C 3.734375 -7.765625 4.003906 -6.390625 4.546875 -5.265625 C 5.097656 -4.148438 5.835938 -3.304688 6.765625 -2.734375 C 7.691406 -2.160156 8.738281 -1.875 9.90625 -1.875 C 10.957031 -1.875 11.890625 -2.097656 12.703125 -2.546875 C 13.523438 -2.992188 14.164062 -3.628906 14.625 -4.453125 C 15.09375 -5.273438 15.335938 -6.25 15.359375 -7.375 L 10.40625 -7.375 L 10.40625 -9.390625 L 17.5625 -9.390625 L 17.5625 -7.375 C 17.5625 -5.820312 17.234375 -4.472656 16.578125 -3.328125 C 15.921875 -2.191406 15.015625 -1.3125 13.859375 -0.6875 C 12.710938 -0.0625 11.394531 0.25 9.90625 0.25 C 8.238281 0.25 6.773438 -0.140625 5.515625 -0.921875 C 4.265625 -1.703125 3.289062 -2.8125 2.59375 -4.25 C 1.894531 -5.695312 1.546875 -7.410156 1.546875 -9.390625 C 1.546875 -11.367188 1.894531 -13.078125 2.59375 -14.515625 C 3.289062 -15.960938 4.253906 -17.078125 5.484375 -17.859375 C 6.722656 -18.640625 8.144531 -19.03125 9.75 -19.03125 C 11.070312 -19.03125 12.269531 -18.769531 13.34375 -18.25 C 14.414062 -17.738281 15.3125 -17.019531 16.03125 -16.09375 C 16.75 -15.175781 17.222656 -14.113281 17.453125 -12.90625 Z M 15.109375 -12.90625 "/></g></g></g><g fill="#38b6ff" fill-opacity="1"><g transform="translate(348.379727, 317.395141)"><g><path d="M 0.65625 -18.765625 L 3.265625 -18.765625 L 8.46875 -10.015625 L 8.6875 -10.015625 L 13.890625 -18.765625 L 16.5 -18.765625 L 9.71875 -7.734375 L 9.71875 0 L 7.4375 0 L 7.4375 -7.734375 Z M 0.65625 -18.765625 "/></g></g></g><g fill="#38b6ff" fill-opacity="1"><g transform="translate(137.597206, 355.135636)"><g><path d="M 1.84375 0 L 1.84375 -21.265625 L 10.234375 -21.265625 C 11.847656 -21.265625 13.222656 -20.957031 14.359375 -20.34375 C 15.492188 -19.726562 16.359375 -18.878906 16.953125 -17.796875 C 17.554688 -16.710938 17.859375 -15.46875 17.859375 -14.0625 C 17.859375 -12.644531 17.550781 -11.394531 16.9375 -10.3125 C 16.332031 -9.238281 15.453125 -8.398438 14.296875 -7.796875 C 13.148438 -7.191406 11.757812 -6.890625 10.125 -6.890625 L 6.34375 -6.890625 L 6.34375 0 Z M 6.34375 -10.5 L 9.390625 -10.5 C 10.679688 -10.5 11.640625 -10.828125 12.265625 -11.484375 C 12.898438 -12.148438 13.21875 -13.007812 13.21875 -14.0625 C 13.21875 -15.113281 12.898438 -15.960938 12.265625 -16.609375 C 11.640625 -17.265625 10.675781 -17.59375 9.375 -17.59375 L 6.34375 -17.59375 Z M 6.34375 -10.5 "/></g></g></g><g fill="#38b6ff" fill-opacity="1"><g transform="translate(156.532067, 355.135636)"><g><path d="M 1.84375 0 L 1.84375 -21.265625 L 6.34375 -21.265625 L 6.34375 -3.703125 L 15.453125 -3.703125 L 15.453125 0 Z M 1.84375 0 "/></g></g></g><g fill="#38b6ff" fill-opacity="1"><g transform="translate(173.120825, 355.135636)"><g><path d="M 15.015625 -21.265625 L 19.46875 -21.265625 L 19.46875 -7.203125 C 19.46875 -5.597656 19.09375 -4.234375 18.34375 -3.109375 C 17.59375 -1.992188 16.550781 -1.144531 15.21875 -0.5625 C 13.894531 0.0078125 12.375 0.296875 10.65625 0.296875 C 8.945312 0.296875 7.425781 0.0078125 6.09375 -0.5625 C 4.757812 -1.144531 3.71875 -1.992188 2.96875 -3.109375 C 2.21875 -4.234375 1.84375 -5.597656 1.84375 -7.203125 L 1.84375 -21.265625 L 6.34375 -21.265625 L 6.34375 -7.359375 C 6.34375 -6.222656 6.75 -5.328125 7.5625 -4.671875 C 8.382812 -4.023438 9.414062 -3.703125 10.65625 -3.703125 C 11.914062 -3.703125 12.957031 -4.023438 13.78125 -4.671875 C 14.601562 -5.328125 15.015625 -6.222656 15.015625 -7.359375 Z M 15.015625 -21.265625 "/></g></g></g><g fill="#38b6ff" fill-opacity="1"><g transform="translate(194.443302, 355.135636)"><g><path d="M 15.953125 -14.390625 C 15.660156 -15.390625 15.128906 -16.171875 14.359375 -16.734375 C 13.597656 -17.296875 12.644531 -17.578125 11.5 -17.578125 C 9.863281 -17.578125 8.539062 -16.972656 7.53125 -15.765625 C 6.53125 -14.566406 6.03125 -12.863281 6.03125 -10.65625 C 6.03125 -8.425781 6.523438 -6.707031 7.515625 -5.5 C 8.503906 -4.289062 9.84375 -3.6875 11.53125 -3.6875 C 13.03125 -3.6875 14.207031 -4.070312 15.0625 -4.84375 C 15.914062 -5.625 16.351562 -6.675781 16.375 -8 L 11.8125 -8 L 11.8125 -11.375 L 20.71875 -11.375 L 20.71875 -8.703125 C 20.71875 -6.835938 20.320312 -5.234375 19.53125 -3.890625 C 18.738281 -2.546875 17.648438 -1.507812 16.265625 -0.78125 C 14.890625 -0.0625 13.304688 0.296875 11.515625 0.296875 C 9.515625 0.296875 7.757812 -0.144531 6.25 -1.03125 C 4.75 -1.914062 3.578125 -3.171875 2.734375 -4.796875 C 1.890625 -6.429688 1.46875 -8.367188 1.46875 -10.609375 C 1.46875 -12.910156 1.90625 -14.875 2.78125 -16.5 C 3.664062 -18.132812 4.859375 -19.382812 6.359375 -20.25 C 7.859375 -21.113281 9.546875 -21.546875 11.421875 -21.546875 C 13.023438 -21.546875 14.476562 -21.238281 15.78125 -20.625 C 17.082031 -20.019531 18.144531 -19.179688 18.96875 -18.109375 C 19.800781 -17.035156 20.316406 -15.796875 20.515625 -14.390625 Z M 15.953125 -14.390625 "/></g></g></g><g fill="#38b6ff" fill-opacity="1"><g transform="translate(216.679304, 355.135636)"><g><path d="M 6.34375 -21.265625 L 6.34375 0 L 1.84375 0 L 1.84375 -21.265625 Z M 6.34375 -21.265625 "/></g></g></g><g fill="#38b6ff" fill-opacity="1"><g transform="translate(224.880256, 355.135636)"><g><path d="M 19.625 -21.265625 L 19.625 0 L 15.75 0 L 6.5 -13.375 L 6.34375 -13.375 L 6.34375 0 L 1.84375 0 L 1.84375 -21.265625 L 5.796875 -21.265625 L 14.96875 -7.890625 L 15.15625 -7.890625 L 15.15625 -21.265625 Z M 19.625 -21.265625 "/></g></g></g><g fill="#f4f4f4" fill-opacity="1"><g transform="translate(165.136124, 291.923326)"><g><path d="M 1.03125 0 L 1.03125 -11.921875 L 8.921875 -11.921875 L 8.921875 -9.84375 L 3.5625 -9.84375 L 3.5625 -7 L 8.40625 -7 L 8.40625 -4.921875 L 3.5625 -4.921875 L 3.5625 0 Z M 1.03125 0 "/></g></g></g><g fill="#f4f4f4" fill-opacity="1"><g transform="translate(174.720328, 291.923326)"><g><path d="M 0.984375 0 L 0.984375 -8.9375 L 3.46875 -8.9375 L 3.46875 0 Z M 2.234375 -10.09375 C 1.867188 -10.09375 1.550781 -10.210938 1.28125 -10.453125 C 1.019531 -10.703125 0.890625 -11 0.890625 -11.34375 C 0.890625 -11.695312 1.019531 -11.992188 1.28125 -12.234375 C 1.550781 -12.472656 1.867188 -12.59375 2.234375 -12.59375 C 2.597656 -12.59375 2.910156 -12.472656 3.171875 -12.234375 C 3.441406 -11.992188 3.578125 -11.695312 3.578125 -11.34375 C 3.578125 -11 3.441406 -10.703125 3.171875 -10.453125 C 2.910156 -10.210938 2.597656 -10.09375 2.234375 -10.09375 Z M 2.234375 -10.09375 "/></g></g></g><g fill="#f4f4f4" fill-opacity="1"><g transform="translate(179.177826, 291.923326)"><g><path d="M 3.46875 -11.921875 L 3.46875 0 L 0.984375 0 L 0.984375 -11.921875 Z M 3.46875 -11.921875 "/></g></g></g><g fill="#f4f4f4" fill-opacity="1"><g transform="translate(183.635323, 291.923326)"><g><path d="M 5.0625 0.171875 C 4.144531 0.171875 3.351562 -0.015625 2.6875 -0.390625 C 2.03125 -0.765625 1.519531 -1.296875 1.15625 -1.984375 C 0.800781 -2.671875 0.625 -3.484375 0.625 -4.421875 C 0.625 -5.347656 0.800781 -6.15625 1.15625 -6.84375 C 1.519531 -7.539062 2.023438 -8.082031 2.671875 -8.46875 C 3.328125 -8.863281 4.09375 -9.0625 4.96875 -9.0625 C 5.75 -9.0625 6.457031 -8.894531 7.09375 -8.5625 C 7.726562 -8.226562 8.234375 -7.722656 8.609375 -7.046875 C 8.984375 -6.367188 9.171875 -5.523438 9.171875 -4.515625 L 9.171875 -3.828125 L 3.078125 -3.828125 C 3.078125 -3.160156 3.257812 -2.632812 3.625 -2.25 C 3.988281 -1.863281 4.484375 -1.671875 5.109375 -1.671875 C 5.523438 -1.671875 5.882812 -1.757812 6.1875 -1.9375 C 6.488281 -2.113281 6.703125 -2.375 6.828125 -2.71875 L 9.109375 -2.5625 C 8.941406 -1.726562 8.5 -1.0625 7.78125 -0.5625 C 7.070312 -0.0703125 6.164062 0.171875 5.0625 0.171875 Z M 3.078125 -5.375 L 6.828125 -5.375 C 6.828125 -5.90625 6.65625 -6.34375 6.3125 -6.6875 C 5.976562 -7.03125 5.539062 -7.203125 5 -7.203125 C 4.445312 -7.203125 3.992188 -7.023438 3.640625 -6.671875 C 3.296875 -6.316406 3.109375 -5.882812 3.078125 -5.375 Z M 3.078125 -5.375 "/></g></g></g><g fill="#f4f4f4" fill-opacity="1"><g transform="translate(193.429021, 291.923326)"><g><path d="M 8.421875 -6.390625 L 6.15625 -6.25 C 6.09375 -6.539062 5.9375 -6.785156 5.6875 -6.984375 C 5.4375 -7.191406 5.09375 -7.296875 4.65625 -7.296875 C 4.28125 -7.296875 3.957031 -7.210938 3.6875 -7.046875 C 3.414062 -6.890625 3.285156 -6.679688 3.296875 -6.421875 C 3.285156 -6.203125 3.367188 -6.019531 3.546875 -5.875 C 3.722656 -5.726562 4.015625 -5.609375 4.421875 -5.515625 L 6.046875 -5.1875 C 7.765625 -4.832031 8.625 -4.023438 8.625 -2.765625 C 8.625 -2.179688 8.453125 -1.664062 8.109375 -1.21875 C 7.773438 -0.78125 7.304688 -0.4375 6.703125 -0.1875 C 6.109375 0.0507812 5.425781 0.171875 4.65625 0.171875 C 3.46875 0.171875 2.519531 -0.0703125 1.8125 -0.5625 C 1.113281 -1.0625 0.707031 -1.738281 0.59375 -2.59375 L 3.03125 -2.71875 C 3.113281 -2.351562 3.296875 -2.078125 3.578125 -1.890625 C 3.859375 -1.703125 4.21875 -1.609375 4.65625 -1.609375 C 5.09375 -1.609375 5.441406 -1.691406 5.703125 -1.859375 C 5.972656 -2.035156 6.109375 -2.253906 6.109375 -2.515625 C 6.097656 -2.960938 5.71875 -3.257812 4.96875 -3.40625 L 3.421875 -3.71875 C 1.691406 -4.0625 0.828125 -4.914062 0.828125 -6.28125 C 0.828125 -7.132812 1.171875 -7.8125 1.859375 -8.3125 C 2.554688 -8.8125 3.476562 -9.0625 4.625 -9.0625 C 5.75 -9.0625 6.632812 -8.820312 7.28125 -8.34375 C 7.9375 -7.863281 8.316406 -7.210938 8.421875 -6.390625 Z M 8.421875 -6.390625 "/></g></g></g></svg>